<?xml version="1.0" encoding="utf-8"?>
<!-- Generator: Adobe Illustrator 22.0.1, SVG Export Plug-In . SVG Version: 6.00 Build 0)  -->
<svg version="1.1" xmlns="http://www.w3.org/2000/svg" xmlns:xlink="http://www.w3.org/1999/xlink" x="0px" y="0px"
	 viewBox="0 0 153.5 92.4" style="enable-background:new 0 0 153.5 92.4;" xml:space="preserve">
<style type="text/css">
	.st0{fill:#424242;stroke:#000000;stroke-miterlimit:10;}
</style>
<g id="Layer_1">
</g>
<g id="Layer_2">
	<path class="st0" d="M83.3,15.4c-2,4.4-3.3,9.4-4.3,14.5l12.3,3.9L83.3,15.4z"/>
	<path class="st0" d="M53.8,23.1l-8-1.2L31.3,0.7L6.2,18l13.3,19.4L8.6,51.5L21.3,70l42.4-35.6C60,30.9,56.5,27.2,53.8,23.1z"/>
	<path class="st0" d="M0.6,75.2c0,0,7.3,18.6,11.3,16.5c2.5-1.3,36.5-25.1,64-45.9c-4.5-4.5-9.7-8.8-14.3-13.4
		C37.1,54.6,5.7,72.1,0.6,75.2z"/>
	<path class="st0" d="M155.1,22.9c0-0.1,0-0.1,0-0.1S155.1,22.9,155.1,22.9z"/>
	<path class="st0" d="M111.6,32.3c-10-0.2-21-2.2-32-5.3c-1.4,6.4-2.3,13.1-3.6,19.3c19.8,7.4,37.4,13.3,43,13.4
		c14.1,0.2,33-31.2,34.2-33.1C152.6,27.3,147.6,32.8,111.6,32.3z"/>
</g>
</svg>
