<?xml version="1.0" encoding="utf-8"?>
<!-- Generator: Adobe Illustrator 22.0.1, SVG Export Plug-In . SVG Version: 6.00 Build 0)  -->
<svg version="1.1" xmlns="http://www.w3.org/2000/svg" xmlns:xlink="http://www.w3.org/1999/xlink" x="0px" y="0px"
	 viewBox="0 0 1280 1024" style="enable-background:new 0 0 1280 1024;" xml:space="preserve">
<style type="text/css">
	.st0{display:none;}
	.st1{fill:url(#SVGID_1_);}
	.st2{fill:#6F6E71;}
	.st3{fill:#58585B;}
	.st4{fill:#7A797C;}
	.st5{fill:url(#SVGID_2_);}
	.st6{fill:url(#SVGID_3_);}
	.st7{fill:#787779;}
	.st8{fill:#4F4C48;}
	.st9{fill:url(#SVGID_4_);}
	.st10{fill:url(#SVGID_5_);}
	.st11{fill:#4D4D50;}
	.st12{fill:#212024;}
	.st13{fill:#121D1C;}
	.st14{fill:#7F8081;}
	.st15{fill:#AD9A72;}
	.st16{fill:#13161E;}
	.st17{fill:#A7AAA9;}
	.st18{fill:#52564B;}
	.st19{display:inline;fill:url(#SVGID_6_);}
</style>
<g id="Layer_1" class="st0">
	
		<image style="display:inline;overflow:visible;" width="2448" height="3264" xlink:href="5512192E.jpg"  transform="matrix(0.3137 0 0 0.3137 0 0)">
	</image>
</g>
<g id="Bridge">
	<linearGradient id="SVGID_1_" gradientUnits="userSpaceOnUse" x1="0" y1="902.5" x2="47.6667" y2="902.5">
		<stop  offset="0.603" style="stop-color:#83827E"/>
		<stop  offset="0.6472" style="stop-color:#37363A"/>
	</linearGradient>
	<polygon class="st1" points="0,804 47.7,828.2 35,1001 0,990.5 	"/>
	<polygon class="st2" points="35,997.6 0,987.1 0,1024 35,1024 	"/>
	<g>
		<path class="st3" d="M5.4,828.3l-5.2-1.6c-0.2,0.3-0.1,3.1-0.1,4.4c0,3.9,4.8,6.3,13.2,6.3c2.4,0,4.7-0.3,6.7-0.7v-8.3L5.4,828.3z
			"/>
		<path class="st3" d="M2.8,835.7c0,0,6.7,30.5-2,74.2c-1.2,5.8-0.2,33.1-0.3,46.5c-0.1,14.5-0.1,27.3-0.2,30.3
			c-0.1,2.8,20.9-6.5,21.4-9.3c2.2-13.7,1.3-52-1.7-87c-2.5-28.3,0-54.7,0-54.7H2.8z"/>
	</g>
	<g>
		<path class="st4" d="M26.1,837.6l-5.2-1.6c-1.3,1.1-2.1,2.3-2.1,3.6c0,3.9,6.8,7.1,15.1,7.1c2.4,0,4.7-0.3,6.7-0.7v-8.3
			L26.1,837.6z"/>
		<path class="st4" d="M23.5,845c0,0,8.1,30.8-2,74.2c-10.2,43.3-8.7,45.8-8.7,54.3S12.3,993.7,21,996s12.2,1.8,14.3,0
			c2.2-1.8,5.3-151,5.3-151H23.5z"/>
	</g>
	<linearGradient id="SVGID_2_" gradientUnits="userSpaceOnUse" x1="0" y1="821.7505" x2="12" y2="821.7505">
		<stop  offset="0.3961" style="stop-color:#646366"/>
		<stop  offset="0.5157" style="stop-color:#000000"/>
	</linearGradient>
	<polygon class="st5" points="0,827 5.8,828.2 12,828.2 12,820.1 0,815.3 	"/>
	<linearGradient id="SVGID_3_" gradientUnits="userSpaceOnUse" x1="12" y1="828.9417" x2="39" y2="828.9417">
		<stop  offset="0.4865" style="stop-color:#646366"/>
		<stop  offset="0.5741" style="stop-color:#000000"/>
	</linearGradient>
	<polygon class="st6" points="12,820.1 12,833.3 26.5,837.8 39,837.8 39,830.9 	"/>
	<polygon class="st7" points="259.9,1024 259.9,847.8 248.3,842 128.3,835.7 122.7,1024 	"/>
	<polygon class="st8" points="39,830.9 31.7,1024 47.7,1024 53,832.1 	"/>
	<linearGradient id="SVGID_4_" gradientUnits="userSpaceOnUse" x1="259.9333" y1="942.2877" x2="386.3333" y2="942.2877">
		<stop  offset="0.603" style="stop-color:#6A6864"/>
		<stop  offset="0.6472" style="stop-color:#212024"/>
	</linearGradient>
	<polygon class="st9" points="259.9,860.6 259.9,1024 386.3,1024 384,883 339.5,883 	"/>
	<linearGradient id="SVGID_5_" gradientUnits="userSpaceOnUse" x1="385.3814" y1="995.2374" x2="552.75" y2="995.2374">
		<stop  offset="0.603" style="stop-color:#83827E"/>
		<stop  offset="0.6472" style="stop-color:#37363A"/>
	</linearGradient>
	<polygon class="st10" points="385.4,966.5 386.3,1024 552.8,1024 	"/>
	<g id="topFence">
		<path class="st11" d="M254.3,828.2V851c0,0,0.2,8,3.2,8.9l82,23.1h26.8l76.5-21.3c0,0-0.5-20.8-24.5-19s-79,1.8-79,1.8
			L254.3,828.2z"/>
		<path class="st11" d="M0,815.3l45,18c0,0,205.3,5,209.3,13v-33.7L44.7,804L0,788.7V815.3z"/>
		<path class="st12" d="M0,790.8l44.8,15c0,0,195.1,5.4,198.9,10.6c3.8,5.2,25.5-8,25.5-8S70.8,789.5,43.4,798L0,784V790.8z"/>
		<path class="st12" d="M246.3,818.1l7.3,9.9l82.4,19.5l87.8-1.5c0,0,18.4,5.1,15.7,11.9c-2.6,6.8,7.3-5.6,7.3-5.6
			s-4.4-18.1-24.8-17.3s-85,1.8-85,1.8L246.3,818.1z"/>
		<path class="st13" d="M370.5,901.5c0,0,0.2,7.2,4.5,8.7L768,1024h39.2L370.5,901.5z"/>
		<path class="st11" d="M376.3,910.6v44.1c0,0,0.5,9,7.7,11.3l168.8,58H768L376.3,910.6z"/>
		<g id="WallTop">
			<path id="Top_1_" class="st14" d="M807.2,1024L384,905.3c0,0-9.3-2.3-14-4c-6.7-5.3-7.3-9.3-7.3-9.3s-4-7,3-10.3
				c7-3.3,124.7-22.7,59.3-45.7l-80.7,1.7c0,0-4.7,1-15.7-1.7s-84.3-18.3-84.3-18.3s-3.3-5.3,0-6.7c3.3-1.3,34.3-3.3,34.3-3.3
				l2.3-3.7l60,4.7c0,0,18,1,28.7-0.3c14.3-0.3,90-4.3,90-4.3s4,2,4,5.3c0,3.3-1.3,3.7-1.3,3.7s168,18.3,111.3,69.7l658.7,141.3
				H807.2z"/>
			<path id="Top" class="st14" d="M270.4,808.2c0,0-208.9-16.2-226-10.1L0,783.3v-24l100,24.5c0,0,175.1,3.1,180.7,11.9
				S281.7,810.5,270.4,808.2z"/>
		</g>
	</g>
	<polygon class="st2" points="47.7,1024 122.7,1024 128.3,835.7 53,832.1 	"/>
</g>
<g id="LampStand">
	<ellipse class="st15" cx="369.7" cy="728.7" rx="62.6" ry="28.3"/>
	<path class="st13" d="M283.1,740.7l-3.4,57.3c0,0,0.8,6,3.4,6s66.6,5,66.6,5l111.7-4.3l-4.4-64.1H283.1z"/>
	<path class="st16" d="M321.3,320.1l-16.5,9.5c-6.6-8.4-22.9,0.5-15.6,13.8s25.8,9,20.4-5.4l16.3-10.3c0,0,1.6,1.5,4.5,0.3
		s8.1-19,8.1-19l-8.6,6.1C328.5,313.1,320.3,314.8,321.3,320.1z"/>
	<path class="st17" d="M410,329.7c0-17.2-18.3-31.2-40.8-31.2c-22.6,0-40.8,14-40.8,31.2c0,11,40.8,15,40.8,15S410,342,410,329.7z"
		/>
	<ellipse cx="369.2" cy="329.7" rx="40.8" ry="15"/>
	<path class="st13" d="M321.3,711h98v-8c0,0-9.3-1-8.3-5.3c1-4.3,2-5,1.3-9.3l-20.7-354c0,0-25-34-46.7,1.3l-17.7,354.7
		c0,0,0,7,1.7,7c0,3.7-5.3,6.3-7.7,6V711z"/>
	<g id="lamphand">
		<path class="st16" d="M351.6,301.5c0,0,14.5-8.1,33.8-0.5v-9.5l28.4-18c1.1,1.9,9.6-2.2,7.8-5.4l26.6-16.7c6.4,6.8,22.8,6.9,19-12
			s-31-20.6-25.1,1.9l-12.9,8.1l-12.8,8.6c-1.3-1.9-9.9,2.8-8.5,6l-23.3,15.1c0,0-1.8,0.4-0.6-1.4c1.1-1.8,0.9-3.3-1.8-4.3
			c0,0-4.1-8.4-9.4-7.8s-14.9,3.6-14.9,3.6l-0.1,1.2c0,0-7,1.6-6.8,5.8c0.3,4.2,0,10.4,0,10.4l0.4,1.5L351.6,301.5z"/>
		<path class="st16" d="M351.4,288.7c0,0-2.6,0.1-2.3-1.6s-0.4-8.8-0.4-8.8s0.4-1,0.8-1s0.9-15.5-26.3-12.6
			c-27.2,2.9-23.8-26.4-3.9-26.3l5.4,0l-0.1,2.1l-1.3,0.3l-0.1,1.1c2.3,0.1,3.1,4.4-1.2,5.3s-4.2-4.4-2.3-4.5c0,0-0.3-1.5-1.3-1.3
			s-26.8,12.3,0.7,19.9c18.6-0.3,32,0.8,32,13.7C351,288.1,351.4,288.7,351.4,288.7z"/>
		<path class="st16" d="M365.2,267.1c0,0-0.1-15.6-4.4-21.5c-4.3-5.9-5.4-24.5-4.5-24.3c0.9,0.2,5.5,1.3,5.2-3.6l-1.7-3l1.8-2.8
			c0,0-3.8-6.3-9,0.6c-5.2,6.9,1.5,31.8,4.5,35.3s4.4,14.5,4.3,20.4C361.4,274.1,365.2,267.1,365.2,267.1z"/>
		<path class="st16" d="M384,274.7c0,0,3.2-11.3,10.8-12.9s26-4.8,28.8-6.1c2.8-1.3,21.6-24.2-11.7-26.4c0,0-1.3,1.4,0.3,2.8
			c0,0-4.7,5.2,0.4,6.5c5.1,1.3,4.7-5.8,3.1-5.7c0-1.8,14.6,1.3,12.4,10.9c-2.2,9.6-18,13-26,13.3c-8,0.3-18.9,6.6-19.1,16.7v1.6
			L384,274.7z"/>
		<path class="st16" d="M377,267l-1.6-5c0,0-5.8-0.7-2.3-5.4l-1.2-2.8c0,0,3.5-3.8,5.7-0.7c0,0,5.8,15.1,3.7,19.8
			C379.3,277.8,377,267,377,267z"/>
		<path class="st16" d="M365.2,267.1l-0.4-28.6c-4.7,0.1-11.2-8.7,2.6-9.3s11.6,8,2.5,8.6l0.4,27.4l1.7,1.3L365.2,267.1z"/>
	</g>
	<path class="st16" d="M350.2,88.5l-63,54.5v2.2l11.3,4.2l21,89l55.3,17l41.8-26.7l18.8-94.3l10.7-6.8v-2.7L350.2,88.5z M305,150.3
		l42.7-35.2l4.5,91c0,0-14.4,15.3-30,23.5L305,150.3z M359.4,214.8l20.4,6.8l-14,9.9l-20.3-6.9L359.4,214.8z M329.4,236.4l12.9-8.9
		l20.4,6.1l-12.9,10.1L329.4,236.4z M375.3,250.4l-18.8-5.8l12.3-9l20.5,5L375.3,250.4z M393.4,238.6l-21-5.9l12.6-9.7l21.6,6.3
		L393.4,238.6z M412,220.5l-50.8-14.8l-4.3-96.5l72.8,26.5L412,220.5z"/>
	<path class="st18" d="M443.6,123.9l7.7-24.4c0,0-11.7-1.8-20.3,17.2l-30.5-31.8l-35.3,4.8c0,0-7.3-26.3-17.5-31.2
		c-8.5,6.5-8.2,33.5-8.2,33.5l-22,1.5l-19.8,36.8c0,0-4.5-11.8-15.5-9.2l8.2,19.1l59.8-51.7L443.6,123.9z"/>
	<path class="st18" d="M390.7,86.7l-9.3-11.2c0,0,17.2-12.3-11.8-25.8c0,0,10-7.5-1.5-18.8c-3-3.8-2-7.5-2-7.5
		c-0.3-2.8-5.2-1.7-4.8,0c0.3,1.7-2,10.8-4.3,13.7s-1.8,8.3,0,10s3.7,3.3,2.2,3.7c-1.5,0.3-10.3,4.8-8.8,9.8s13.5,30.8,13.5,30.8
		L390.7,86.7z"/>
</g>
<g id="light" class="st0">
	<radialGradient id="SVGID_6_" cx="362.625" cy="172.4095" r="676.9454" gradientUnits="userSpaceOnUse">
		<stop  offset="0" style="stop-color:#E4EA92"/>
		<stop  offset="1" style="stop-color:#000000;stop-opacity:0"/>
	</radialGradient>
	<circle class="st19" cx="362.6" cy="172.4" r="676.9"/>
</g>
</svg>
