<?xml version="1.0" encoding="utf-8"?>
<!-- Generator: Adobe Illustrator 22.0.1, SVG Export Plug-In . SVG Version: 6.00 Build 0)  -->
<svg version="1.1" xmlns="http://www.w3.org/2000/svg" xmlns:xlink="http://www.w3.org/1999/xlink" x="0px" y="0px"
	 viewBox="0 0 1354.6 722" style="enable-background:new 0 0 1354.6 722;" xml:space="preserve">
<style type="text/css">
	.st0{display:none;}
	.st1{fill:#B67C76;}
	.st2{fill:#B49481;}
	.st3{fill:url(#SVGID_1_);}
	.st4{fill:#252A27;}
	.st5{fill:#7F580A;}
	.st6{fill:url(#SVGID_2_);}
	.st7{fill:#303A37;}
	.st8{fill:url(#SVGID_3_);}
	.st9{fill:url(#SVGID_4_);}
	.st10{fill:url(#SVGID_5_);}
	.st11{fill:url(#SVGID_6_);}
	.st12{fill:url(#SVGID_7_);}
	.st13{fill:url(#SVGID_8_);}
	.st14{fill:url(#SVGID_9_);}
	.st15{fill:url(#SVGID_10_);}
	.st16{fill:url(#SVGID_11_);}
	.st17{fill:url(#SVGID_12_);}
	.st18{fill:url(#SVGID_13_);}
	.st19{fill:url(#SVGID_14_);}
	.st20{fill:url(#SVGID_15_);}
	.st21{fill:url(#SVGID_16_);}
	.st22{fill:url(#SVGID_17_);}
	.st23{fill:url(#SVGID_18_);}
	.st24{fill:url(#SVGID_19_);}
	.st25{fill:url(#SVGID_20_);}
	.st26{fill:url(#SVGID_21_);}
	.st27{fill:url(#SVGID_22_);}
	.st28{fill:url(#SVGID_23_);}
	.st29{fill:url(#SVGID_24_);}
	.st30{fill:url(#SVGID_25_);}
	.st31{fill:url(#SVGID_26_);}
	.st32{fill:url(#SVGID_27_);}
	.st33{fill:url(#SVGID_28_);}
	.st34{fill:url(#SVGID_29_);}
	.st35{fill:url(#SVGID_30_);}
	.st36{fill:url(#SVGID_31_);}
	.st37{fill:url(#SVGID_32_);}
	.st38{fill:url(#SVGID_33_);}
	.st39{fill:url(#SVGID_34_);}
	.st40{fill:#212428;}
	.st41{fill:#260C02;}
	.st42{fill:none;stroke:#000000;stroke-width:0.9138;stroke-miterlimit:10;}
	.st43{fill:none;stroke:#000000;stroke-width:0.7231;stroke-miterlimit:10;}
	.st44{fill:none;stroke:#000000;stroke-width:0.7913;stroke-miterlimit:10;}
</style>
<g id="Layer_1" class="st0">
	
		<image style="display:inline;overflow:visible;" width="1280" height="720" xlink:href="../Pictures/maxresdefault.jpg"  transform="matrix(1 0 0 1 69 0)">
	</image>
</g>
<g id="Layer_2">
	<path class="st1" d="M869.7,37.3h-4V28l-379.3,4l-16.9,418l135.9,0.3l1.7,8.2h14l-2,12.5l-13.5,6l1.5,27l6.5,1.5L609,516l-3,176
		l0.3,5.3l3.3,1.3l292.6-4.5L869.7,37.3z M512.9,125.3h53.5v100.5h-53.5V125.3z M567.5,409.5H514V309h53.5V409.5z M789.4,125.3h53.5
		v100.5h-53.5V125.3z M707.4,632h-53.5V531.5h53.5V632z M707.5,410.2H654V309.7h53.5V410.2z M708.1,224.9h-53.5V124.4h53.5V224.9z
		 M789.4,309.1h53.5v100.5h-53.5V309.1z M850.8,629.9h-53.5V529.4h53.5V629.9z"/>
	<polygon class="st2" points="465,448.5 607.5,447.5 607.5,458.5 620.5,458 620.5,470 608,478.5 608,504 616,504 609,516 607,692 
		610,694 609.5,699 902,692 905,695 905,722 458,717 463,520 458,504.5 464,504 465,475.5 452.5,468 452.5,456 465.5,455.5 	"/>
	<linearGradient id="SVGID_1_" gradientUnits="userSpaceOnUse" x1="534.3333" y1="692.6667" x2="534.3333" y2="505.3333">
		<stop  offset="0.4" style="stop-color:#252A27"/>
		<stop  offset="0.7178" style="stop-color:#232825"/>
		<stop  offset="0.8347" style="stop-color:#1D211F"/>
		<stop  offset="0.9182" style="stop-color:#131514"/>
		<stop  offset="0.9858" style="stop-color:#040504"/>
		<stop  offset="1" style="stop-color:#000000"/>
	</linearGradient>
	<polygon class="st3" points="491.7,505.3 578,505.3 584.3,518.3 582.3,692.7 484.3,692.7 488.7,516 	"/>
	<polygon class="st4" points="465.4,478.5 608,478.5 620.5,470 621.1,457.8 607.5,458.5 607.5,447.5 465,448.5 465.5,455.5 
		452.5,456 452.5,468 	"/>
	<path class="st5" d="M417.2,37.3h-4V28L33.8,32L16.9,450l135.9,0.3l1.7,8.2h14l-2,12.5l-13.5,6l1.5,27l6.5,1.5l-4.5,10.5l-3,176
		l0.3,5.3l3.3,1.3l292.6-4.5L417.2,37.3z M60.4,125.3h53.5v100.5H60.4V125.3z M115,409.5H61.5V309H115V409.5z M336.9,125.3h53.5
		v100.5h-53.5V125.3z M254.9,632h-53.5V531.5h53.5V632z M255,410.2h-53.5V309.7H255V410.2z M255.6,224.9h-53.5V124.4h53.5V224.9z
		 M336.9,309.1h53.5v100.5h-53.5V309.1z M398.3,629.9h-53.5V529.4h53.5V629.9z"/>
	<polygon class="st2" points="12.5,448.5 155,447.5 155,458.5 168,458 168,470 155.5,478.5 155.5,504 163.5,504 156.5,516 
		154.5,692 157.5,694 157,699 449.5,692 452.5,695 452.5,722 5.5,717 10.5,520 5.5,504.5 11.5,504 12.5,475.5 0,468 0,456 13,455.5 
			"/>
	<linearGradient id="SVGID_2_" gradientUnits="userSpaceOnUse" x1="81.8333" y1="692.6667" x2="81.8333" y2="505.3333">
		<stop  offset="0.4" style="stop-color:#252A27"/>
		<stop  offset="0.7178" style="stop-color:#232825"/>
		<stop  offset="0.8347" style="stop-color:#1D211F"/>
		<stop  offset="0.9182" style="stop-color:#131514"/>
		<stop  offset="0.9858" style="stop-color:#040504"/>
		<stop  offset="1" style="stop-color:#000000"/>
	</linearGradient>
	<polygon class="st6" points="39.2,505.3 125.5,505.3 131.8,518.3 129.8,692.7 31.8,692.7 36.2,516 	"/>
	<polygon class="st4" points="12.9,478.5 155.5,478.5 168,470 168.6,457.8 155,458.5 155,447.5 12.5,448.5 13,455.5 0,456 0,468 	
		"/>
</g>
<g id="window">
	<rect x="640.3" y="286.8" class="st7" width="79.8" height="16"/>
	<rect x="643.3" y="415.5" class="st7" width="75" height="8.5"/>
	<linearGradient id="SVGID_3_" gradientUnits="userSpaceOnUse" x1="681.25" y1="416.25" x2="681.25" y2="302.5">
		<stop  offset="0.9538" style="stop-color:#303A37"/>
		<stop  offset="1" style="stop-color:#000000"/>
	</linearGradient>
	<path class="st8" d="M712.5,302.5h-64.8v113.8h67L712.5,302.5z M653.8,413l-2-105.3L709,307l1.5,106H653.8z"/>
	<path class="st7" d="M709,307l-57.3,0.8l2,105.3h57.5L709,307z M654.5,310.8h15.3V333h-15.3V310.8z M670.3,335.5v22.3H655v-22.3
		H670.3z M654.8,361.3H670v22.3h-15.3V361.3z M670.5,408.3h-15.3V386h15.3V408.3z M672.5,310.8h15.3V333h-15.3V310.8z M688.3,335.5
		v22.3H673v-22.3H688.3z M672.8,361.3H688v22.3h-15.3V361.3z M688.5,408.3h-15.3V386h15.3V408.3z M690.8,310.8H706V333h-15.3V310.8z
		 M706.5,335.5v22.3h-15.3v-22.3H706.5z M691,361.3h15.3v22.3H691V361.3z M706.8,408.3h-15.3V386h15.3V408.3z"/>
	<linearGradient id="SVGID_4_" gradientUnits="userSpaceOnUse" x1="681.4946" y1="413" x2="681.4946" y2="306.9918">
		<stop  offset="0.4" style="stop-color:#FFFFFF;stop-opacity:0"/>
		<stop  offset="0.6196" style="stop-color:#FDFDFD;stop-opacity:0.366"/>
		<stop  offset="0.7004" style="stop-color:#F6F6F6;stop-opacity:0.5007"/>
		<stop  offset="0.7583" style="stop-color:#EAEAEA;stop-opacity:0.5972"/>
		<stop  offset="0.8053" style="stop-color:#D9D9D9;stop-opacity:0.6756"/>
		<stop  offset="0.8457" style="stop-color:#C3C3C3;stop-opacity:0.7428"/>
		<stop  offset="0.8815" style="stop-color:#A8A8A8;stop-opacity:0.8024"/>
		<stop  offset="0.9139" style="stop-color:#878787;stop-opacity:0.8565"/>
		<stop  offset="0.9437" style="stop-color:#616161;stop-opacity:0.9062"/>
		<stop  offset="0.9715" style="stop-color:#363636;stop-opacity:0.9525"/>
		<stop  offset="0.9962" style="stop-color:#080808;stop-opacity:0.9937"/>
		<stop  offset="1" style="stop-color:#000000"/>
	</linearGradient>
	<polygon class="st9" points="651.7,307 709.6,307 711.3,413 653.3,413 	"/>
	<rect x="499.8" y="286.8" class="st7" width="79.8" height="16"/>
	<rect x="502.8" y="415.5" class="st7" width="75" height="8.5"/>
	<linearGradient id="SVGID_5_" gradientUnits="userSpaceOnUse" x1="540.75" y1="416.25" x2="540.75" y2="302.5">
		<stop  offset="0.9538" style="stop-color:#303A37"/>
		<stop  offset="1" style="stop-color:#000000"/>
	</linearGradient>
	<path class="st10" d="M572,302.5h-64.8v113.8h67L572,302.5z M513.3,413l-2-105.3l57.3-0.8l1.5,106H513.3z"/>
	<path class="st7" d="M568.5,307l-57.3,0.8l2,105.3h57.5L568.5,307z M514,310.8h15.3V333H514V310.8z M529.8,335.5v22.3h-15.3v-22.3
		H529.8z M514.3,361.3h15.3v22.3h-15.3V361.3z M530,408.3h-15.3V386H530V408.3z M532,310.8h15.3V333H532V310.8z M547.8,335.5v22.3
		h-15.3v-22.3H547.8z M532.3,361.3h15.3v22.3h-15.3V361.3z M548,408.3h-15.3V386H548V408.3z M550.3,310.8h15.3V333h-15.3V310.8z
		 M566,335.5v22.3h-15.3v-22.3H566z M550.5,361.3h15.3v22.3h-15.3V361.3z M566.3,408.3H551V386h15.3V408.3z"/>
	<linearGradient id="SVGID_6_" gradientUnits="userSpaceOnUse" x1="540.9946" y1="413" x2="540.9946" y2="306.9918">
		<stop  offset="0.4" style="stop-color:#FFFFFF;stop-opacity:0"/>
		<stop  offset="0.6196" style="stop-color:#FDFDFD;stop-opacity:0.366"/>
		<stop  offset="0.7004" style="stop-color:#F6F6F6;stop-opacity:0.5007"/>
		<stop  offset="0.7583" style="stop-color:#EAEAEA;stop-opacity:0.5972"/>
		<stop  offset="0.8053" style="stop-color:#D9D9D9;stop-opacity:0.6756"/>
		<stop  offset="0.8457" style="stop-color:#C3C3C3;stop-opacity:0.7428"/>
		<stop  offset="0.8815" style="stop-color:#A8A8A8;stop-opacity:0.8024"/>
		<stop  offset="0.9139" style="stop-color:#878787;stop-opacity:0.8565"/>
		<stop  offset="0.9437" style="stop-color:#616161;stop-opacity:0.9062"/>
		<stop  offset="0.9715" style="stop-color:#363636;stop-opacity:0.9525"/>
		<stop  offset="0.9962" style="stop-color:#080808;stop-opacity:0.9937"/>
		<stop  offset="1" style="stop-color:#000000"/>
	</linearGradient>
	<polygon class="st11" points="511.2,307 569.1,307 570.8,413 512.8,413 	"/>
	<rect x="775.8" y="286.8" class="st7" width="79.8" height="16"/>
	<rect x="778.8" y="415.5" class="st7" width="75" height="8.5"/>
	<linearGradient id="SVGID_7_" gradientUnits="userSpaceOnUse" x1="816.75" y1="416.25" x2="816.75" y2="302.5">
		<stop  offset="0.9538" style="stop-color:#303A37"/>
		<stop  offset="1" style="stop-color:#000000"/>
	</linearGradient>
	<path class="st12" d="M848,302.5h-64.8v113.8h67L848,302.5z M789.3,413l-2-105.3l57.3-0.8l1.5,106H789.3z"/>
	<path class="st7" d="M844.5,307l-57.3,0.8l2,105.3h57.5L844.5,307z M790,310.8h15.3V333H790V310.8z M805.8,335.5v22.3h-15.3v-22.3
		H805.8z M790.3,361.3h15.3v22.3h-15.3V361.3z M806,408.3h-15.3V386H806V408.3z M808,310.8h15.3V333H808V310.8z M823.8,335.5v22.3
		h-15.3v-22.3H823.8z M808.3,361.3h15.3v22.3h-15.3V361.3z M824,408.3h-15.3V386H824V408.3z M826.3,310.8h15.3V333h-15.3V310.8z
		 M842,335.5v22.3h-15.3v-22.3H842z M826.5,361.3h15.3v22.3h-15.3V361.3z M842.3,408.3H827V386h15.3V408.3z"/>
	<linearGradient id="SVGID_8_" gradientUnits="userSpaceOnUse" x1="816.9946" y1="413" x2="816.9946" y2="306.9918">
		<stop  offset="0.4" style="stop-color:#FFFFFF;stop-opacity:0"/>
		<stop  offset="0.6196" style="stop-color:#FDFDFD;stop-opacity:0.366"/>
		<stop  offset="0.7004" style="stop-color:#F6F6F6;stop-opacity:0.5007"/>
		<stop  offset="0.7583" style="stop-color:#EAEAEA;stop-opacity:0.5972"/>
		<stop  offset="0.8053" style="stop-color:#D9D9D9;stop-opacity:0.6756"/>
		<stop  offset="0.8457" style="stop-color:#C3C3C3;stop-opacity:0.7428"/>
		<stop  offset="0.8815" style="stop-color:#A8A8A8;stop-opacity:0.8024"/>
		<stop  offset="0.9139" style="stop-color:#878787;stop-opacity:0.8565"/>
		<stop  offset="0.9437" style="stop-color:#616161;stop-opacity:0.9062"/>
		<stop  offset="0.9715" style="stop-color:#363636;stop-opacity:0.9525"/>
		<stop  offset="0.9962" style="stop-color:#080808;stop-opacity:0.9937"/>
		<stop  offset="1" style="stop-color:#000000"/>
	</linearGradient>
	<polygon class="st13" points="787.2,307 845.1,307 846.8,413 788.8,413 	"/>
	<rect x="640.3" y="102.3" class="st7" width="79.8" height="16"/>
	<rect x="643.3" y="231" class="st7" width="75" height="8.5"/>
	<linearGradient id="SVGID_9_" gradientUnits="userSpaceOnUse" x1="681.25" y1="231.75" x2="681.25" y2="118">
		<stop  offset="0.9538" style="stop-color:#303A37"/>
		<stop  offset="1" style="stop-color:#000000"/>
	</linearGradient>
	<path class="st14" d="M712.5,118h-64.8v113.8h67L712.5,118z M653.8,228.5l-2-105.3l57.3-0.8l1.5,106H653.8z"/>
	<path class="st7" d="M709,122.5l-57.3,0.8l2,105.3h57.5L709,122.5z M654.5,126.3h15.3v22.3h-15.3V126.3z M670.3,151v22.3H655V151
		H670.3z M654.8,176.8H670V199h-15.3V176.8z M670.5,223.8h-15.3v-22.3h15.3V223.8z M672.5,126.3h15.3v22.3h-15.3V126.3z M688.3,151
		v22.3H673V151H688.3z M672.8,176.8H688V199h-15.3V176.8z M688.5,223.8h-15.3v-22.3h15.3V223.8z M690.8,126.3H706v22.3h-15.3V126.3z
		 M706.5,151v22.3h-15.3V151H706.5z M691,176.8h15.3V199H691V176.8z M706.8,223.8h-15.3v-22.3h15.3V223.8z"/>
	<linearGradient id="SVGID_10_" gradientUnits="userSpaceOnUse" x1="681.4946" y1="228.5" x2="681.4946" y2="122.4918">
		<stop  offset="0.4" style="stop-color:#FFFFFF;stop-opacity:0"/>
		<stop  offset="0.6196" style="stop-color:#FDFDFD;stop-opacity:0.366"/>
		<stop  offset="0.7004" style="stop-color:#F6F6F6;stop-opacity:0.5007"/>
		<stop  offset="0.7583" style="stop-color:#EAEAEA;stop-opacity:0.5972"/>
		<stop  offset="0.8053" style="stop-color:#D9D9D9;stop-opacity:0.6756"/>
		<stop  offset="0.8457" style="stop-color:#C3C3C3;stop-opacity:0.7428"/>
		<stop  offset="0.8815" style="stop-color:#A8A8A8;stop-opacity:0.8024"/>
		<stop  offset="0.9139" style="stop-color:#878787;stop-opacity:0.8565"/>
		<stop  offset="0.9437" style="stop-color:#616161;stop-opacity:0.9062"/>
		<stop  offset="0.9715" style="stop-color:#363636;stop-opacity:0.9525"/>
		<stop  offset="0.9962" style="stop-color:#080808;stop-opacity:0.9937"/>
		<stop  offset="1" style="stop-color:#000000"/>
	</linearGradient>
	<polygon class="st15" points="651.7,122.5 709.6,122.5 711.3,228.5 653.3,228.5 	"/>
	<rect x="499.8" y="102.3" class="st7" width="79.8" height="16"/>
	<rect x="502.8" y="231" class="st7" width="75" height="8.5"/>
	<linearGradient id="SVGID_11_" gradientUnits="userSpaceOnUse" x1="540.75" y1="231.75" x2="540.75" y2="118">
		<stop  offset="0.9538" style="stop-color:#303A37"/>
		<stop  offset="1" style="stop-color:#000000"/>
	</linearGradient>
	<path class="st16" d="M572,118h-64.8v113.8h67L572,118z M513.3,228.5l-2-105.3l57.3-0.8l1.5,106H513.3z"/>
	<path class="st7" d="M568.5,122.5l-57.3,0.8l2,105.3h57.5L568.5,122.5z M514,126.3h15.3v22.3H514V126.3z M529.8,151v22.3h-15.3V151
		H529.8z M514.3,176.8h15.3V199h-15.3V176.8z M530,223.8h-15.3v-22.3H530V223.8z M532,126.3h15.3v22.3H532V126.3z M547.8,151v22.3
		h-15.3V151H547.8z M532.3,176.8h15.3V199h-15.3V176.8z M548,223.8h-15.3v-22.3H548V223.8z M550.3,126.3h15.3v22.3h-15.3V126.3z
		 M566,151v22.3h-15.3V151H566z M550.5,176.8h15.3V199h-15.3V176.8z M566.3,223.8H551v-22.3h15.3V223.8z"/>
	<linearGradient id="SVGID_12_" gradientUnits="userSpaceOnUse" x1="540.9946" y1="228.5" x2="540.9946" y2="122.4918">
		<stop  offset="0.4" style="stop-color:#FFFFFF;stop-opacity:0"/>
		<stop  offset="0.6196" style="stop-color:#FDFDFD;stop-opacity:0.366"/>
		<stop  offset="0.7004" style="stop-color:#F6F6F6;stop-opacity:0.5007"/>
		<stop  offset="0.7583" style="stop-color:#EAEAEA;stop-opacity:0.5972"/>
		<stop  offset="0.8053" style="stop-color:#D9D9D9;stop-opacity:0.6756"/>
		<stop  offset="0.8457" style="stop-color:#C3C3C3;stop-opacity:0.7428"/>
		<stop  offset="0.8815" style="stop-color:#A8A8A8;stop-opacity:0.8024"/>
		<stop  offset="0.9139" style="stop-color:#878787;stop-opacity:0.8565"/>
		<stop  offset="0.9437" style="stop-color:#616161;stop-opacity:0.9062"/>
		<stop  offset="0.9715" style="stop-color:#363636;stop-opacity:0.9525"/>
		<stop  offset="0.9962" style="stop-color:#080808;stop-opacity:0.9937"/>
		<stop  offset="1" style="stop-color:#000000"/>
	</linearGradient>
	<polygon class="st17" points="511.2,122.5 569.1,122.5 570.8,228.5 512.8,228.5 	"/>
	<rect x="775.8" y="102.3" class="st7" width="79.8" height="16"/>
	<rect x="778.8" y="231" class="st7" width="75" height="8.5"/>
	<linearGradient id="SVGID_13_" gradientUnits="userSpaceOnUse" x1="816.75" y1="231.75" x2="816.75" y2="118">
		<stop  offset="0.9538" style="stop-color:#303A37"/>
		<stop  offset="1" style="stop-color:#000000"/>
	</linearGradient>
	<path class="st18" d="M848,118h-64.8v113.8h67L848,118z M789.3,228.5l-2-105.3l57.3-0.8l1.5,106H789.3z"/>
	<path class="st7" d="M844.5,122.5l-57.3,0.8l2,105.3h57.5L844.5,122.5z M790,126.3h15.3v22.3H790V126.3z M805.8,151v22.3h-15.3V151
		H805.8z M790.3,176.8h15.3V199h-15.3V176.8z M806,223.8h-15.3v-22.3H806V223.8z M808,126.3h15.3v22.3H808V126.3z M823.8,151v22.3
		h-15.3V151H823.8z M808.3,176.8h15.3V199h-15.3V176.8z M824,223.8h-15.3v-22.3H824V223.8z M826.3,126.3h15.3v22.3h-15.3V126.3z
		 M842,151v22.3h-15.3V151H842z M826.5,176.8h15.3V199h-15.3V176.8z M842.3,223.8H827v-22.3h15.3V223.8z"/>
	<linearGradient id="SVGID_14_" gradientUnits="userSpaceOnUse" x1="816.9946" y1="228.5" x2="816.9946" y2="122.4918">
		<stop  offset="0.4" style="stop-color:#FFFFFF;stop-opacity:0"/>
		<stop  offset="0.6196" style="stop-color:#FDFDFD;stop-opacity:0.366"/>
		<stop  offset="0.7004" style="stop-color:#F6F6F6;stop-opacity:0.5007"/>
		<stop  offset="0.7583" style="stop-color:#EAEAEA;stop-opacity:0.5972"/>
		<stop  offset="0.8053" style="stop-color:#D9D9D9;stop-opacity:0.6756"/>
		<stop  offset="0.8457" style="stop-color:#C3C3C3;stop-opacity:0.7428"/>
		<stop  offset="0.8815" style="stop-color:#A8A8A8;stop-opacity:0.8024"/>
		<stop  offset="0.9139" style="stop-color:#878787;stop-opacity:0.8565"/>
		<stop  offset="0.9437" style="stop-color:#616161;stop-opacity:0.9062"/>
		<stop  offset="0.9715" style="stop-color:#363636;stop-opacity:0.9525"/>
		<stop  offset="0.9962" style="stop-color:#080808;stop-opacity:0.9937"/>
		<stop  offset="1" style="stop-color:#000000"/>
	</linearGradient>
	<polygon class="st19" points="787.2,122.5 845.1,122.5 846.8,228.5 788.8,228.5 	"/>
	<rect x="784.1" y="507.3" class="st7" width="79.8" height="16"/>
	<rect x="787.1" y="636" class="st7" width="75" height="8.5"/>
	<linearGradient id="SVGID_15_" gradientUnits="userSpaceOnUse" x1="825.125" y1="636.75" x2="825.125" y2="523">
		<stop  offset="0.9538" style="stop-color:#303A37"/>
		<stop  offset="1" style="stop-color:#000000"/>
	</linearGradient>
	<path class="st20" d="M856.4,523h-64.8v113.8h67L856.4,523z M797.7,633.5l-2-105.3l57.3-0.8l1.5,106H797.7z"/>
	<path class="st7" d="M852.9,527.5l-57.3,0.8l2,105.3h57.5L852.9,527.5z M798.4,531.3h15.3v22.3h-15.3V531.3z M814.1,556v22.3h-15.3
		V556H814.1z M798.6,581.8h15.3V604h-15.3V581.8z M814.4,628.8h-15.3v-22.3h15.3V628.8z M816.4,531.3h15.3v22.3h-15.3V531.3z
		 M832.1,556v22.3h-15.3V556H832.1z M816.6,581.8h15.3V604h-15.3V581.8z M832.4,628.8h-15.3v-22.3h15.3V628.8z M834.6,531.3h15.3
		v22.3h-15.3V531.3z M850.4,556v22.3h-15.3V556H850.4z M834.9,581.8h15.3V604h-15.3V581.8z M850.6,628.8h-15.3v-22.3h15.3V628.8z"/>
	<linearGradient id="SVGID_16_" gradientUnits="userSpaceOnUse" x1="825.3696" y1="633.5" x2="825.3696" y2="527.4918">
		<stop  offset="0.4" style="stop-color:#FFFFFF;stop-opacity:0"/>
		<stop  offset="0.6196" style="stop-color:#FDFDFD;stop-opacity:0.366"/>
		<stop  offset="0.7004" style="stop-color:#F6F6F6;stop-opacity:0.5007"/>
		<stop  offset="0.7583" style="stop-color:#EAEAEA;stop-opacity:0.5972"/>
		<stop  offset="0.8053" style="stop-color:#D9D9D9;stop-opacity:0.6756"/>
		<stop  offset="0.8457" style="stop-color:#C3C3C3;stop-opacity:0.7428"/>
		<stop  offset="0.8815" style="stop-color:#A8A8A8;stop-opacity:0.8024"/>
		<stop  offset="0.9139" style="stop-color:#878787;stop-opacity:0.8565"/>
		<stop  offset="0.9437" style="stop-color:#616161;stop-opacity:0.9062"/>
		<stop  offset="0.9715" style="stop-color:#363636;stop-opacity:0.9525"/>
		<stop  offset="0.9962" style="stop-color:#080808;stop-opacity:0.9937"/>
		<stop  offset="1" style="stop-color:#000000"/>
	</linearGradient>
	<polygon class="st21" points="795.6,527.5 853.5,527.5 855.1,633.5 797.1,633.5 	"/>
	<rect x="640.8" y="509.6" class="st7" width="79.8" height="16"/>
	<rect x="643.8" y="638.4" class="st7" width="75" height="8.5"/>
	<linearGradient id="SVGID_17_" gradientUnits="userSpaceOnUse" x1="681.75" y1="639.125" x2="681.75" y2="525.375">
		<stop  offset="0.9538" style="stop-color:#303A37"/>
		<stop  offset="1" style="stop-color:#000000"/>
	</linearGradient>
	<path class="st22" d="M713,525.4h-64.8v113.8h67L713,525.4z M654.3,635.9l-2-105.3l57.3-0.8l1.5,106H654.3z"/>
	<path class="st7" d="M709.5,529.9l-57.3,0.8l2,105.3h57.5L709.5,529.9z M655,533.6h15.3v22.3H655V533.6z M670.8,558.4v22.3h-15.3
		v-22.3H670.8z M655.3,584.1h15.3v22.3h-15.3V584.1z M671,631.1h-15.3v-22.3H671V631.1z M673,533.6h15.3v22.3H673V533.6z
		 M688.8,558.4v22.3h-15.3v-22.3H688.8z M673.3,584.1h15.3v22.3h-15.3V584.1z M689,631.1h-15.3v-22.3H689V631.1z M691.3,533.6h15.3
		v22.3h-15.3V533.6z M707,558.4v22.3h-15.3v-22.3H707z M691.5,584.1h15.3v22.3h-15.3V584.1z M707.3,631.1H692v-22.3h15.3V631.1z"/>
	<linearGradient id="SVGID_18_" gradientUnits="userSpaceOnUse" x1="681.9946" y1="635.875" x2="681.9946" y2="529.8668">
		<stop  offset="0.4" style="stop-color:#FFFFFF;stop-opacity:0"/>
		<stop  offset="0.6196" style="stop-color:#FDFDFD;stop-opacity:0.366"/>
		<stop  offset="0.7004" style="stop-color:#F6F6F6;stop-opacity:0.5007"/>
		<stop  offset="0.7583" style="stop-color:#EAEAEA;stop-opacity:0.5972"/>
		<stop  offset="0.8053" style="stop-color:#D9D9D9;stop-opacity:0.6756"/>
		<stop  offset="0.8457" style="stop-color:#C3C3C3;stop-opacity:0.7428"/>
		<stop  offset="0.8815" style="stop-color:#A8A8A8;stop-opacity:0.8024"/>
		<stop  offset="0.9139" style="stop-color:#878787;stop-opacity:0.8565"/>
		<stop  offset="0.9437" style="stop-color:#616161;stop-opacity:0.9062"/>
		<stop  offset="0.9715" style="stop-color:#363636;stop-opacity:0.9525"/>
		<stop  offset="0.9962" style="stop-color:#080808;stop-opacity:0.9937"/>
		<stop  offset="1" style="stop-color:#000000"/>
	</linearGradient>
	<polygon class="st23" points="652.2,529.9 710.1,529.9 711.8,635.9 653.8,635.9 	"/>
	<rect x="187.8" y="286.8" class="st7" width="79.8" height="16"/>
	<rect x="190.8" y="415.5" class="st7" width="75" height="8.5"/>
	<linearGradient id="SVGID_19_" gradientUnits="userSpaceOnUse" x1="228.75" y1="416.25" x2="228.75" y2="302.5">
		<stop  offset="0.9538" style="stop-color:#303A37"/>
		<stop  offset="1" style="stop-color:#000000"/>
	</linearGradient>
	<path class="st24" d="M260,302.5h-64.8v113.8h67L260,302.5z M201.3,413l-2-105.3l57.3-0.8l1.5,106H201.3z"/>
	<path class="st7" d="M256.5,307l-57.3,0.8l2,105.3h57.5L256.5,307z M202,310.8h15.3V333H202V310.8z M217.8,335.5v22.3h-15.3v-22.3
		H217.8z M202.3,361.3h15.3v22.3h-15.3V361.3z M218,408.3h-15.3V386H218V408.3z M220,310.8h15.3V333H220V310.8z M235.8,335.5v22.3
		h-15.3v-22.3H235.8z M220.3,361.3h15.3v22.3h-15.3V361.3z M236,408.3h-15.3V386H236V408.3z M238.3,310.8h15.3V333h-15.3V310.8z
		 M254,335.5v22.3h-15.3v-22.3H254z M238.5,361.3h15.3v22.3h-15.3V361.3z M254.3,408.3H239V386h15.3V408.3z"/>
	<linearGradient id="SVGID_20_" gradientUnits="userSpaceOnUse" x1="228.9947" y1="413" x2="228.9947" y2="306.9918">
		<stop  offset="0.4" style="stop-color:#FFFFFF;stop-opacity:0"/>
		<stop  offset="0.6196" style="stop-color:#FDFDFD;stop-opacity:0.366"/>
		<stop  offset="0.7004" style="stop-color:#F6F6F6;stop-opacity:0.5007"/>
		<stop  offset="0.7583" style="stop-color:#EAEAEA;stop-opacity:0.5972"/>
		<stop  offset="0.8053" style="stop-color:#D9D9D9;stop-opacity:0.6756"/>
		<stop  offset="0.8457" style="stop-color:#C3C3C3;stop-opacity:0.7428"/>
		<stop  offset="0.8815" style="stop-color:#A8A8A8;stop-opacity:0.8024"/>
		<stop  offset="0.9139" style="stop-color:#878787;stop-opacity:0.8565"/>
		<stop  offset="0.9437" style="stop-color:#616161;stop-opacity:0.9062"/>
		<stop  offset="0.9715" style="stop-color:#363636;stop-opacity:0.9525"/>
		<stop  offset="0.9962" style="stop-color:#080808;stop-opacity:0.9937"/>
		<stop  offset="1" style="stop-color:#000000"/>
	</linearGradient>
	<polygon class="st25" points="199.2,307 257.1,307 258.8,413 200.8,413 	"/>
	<rect x="47.3" y="286.8" class="st7" width="79.8" height="16"/>
	<rect x="50.3" y="415.5" class="st7" width="75" height="8.5"/>
	<linearGradient id="SVGID_21_" gradientUnits="userSpaceOnUse" x1="88.25" y1="416.25" x2="88.25" y2="302.5">
		<stop  offset="0.9538" style="stop-color:#303A37"/>
		<stop  offset="1" style="stop-color:#000000"/>
	</linearGradient>
	<path class="st26" d="M119.5,302.5H54.8v113.8h67L119.5,302.5z M60.8,413l-2-105.3L116,307l1.5,106H60.8z"/>
	<path class="st7" d="M116,307l-57.3,0.8l2,105.3h57.5L116,307z M61.5,310.8h15.3V333H61.5V310.8z M77.3,335.5v22.3H62v-22.3H77.3z
		 M61.8,361.3H77v22.3H61.8V361.3z M77.5,408.3H62.3V386h15.3V408.3z M79.5,310.8h15.3V333H79.5V310.8z M95.3,335.5v22.3H80v-22.3
		H95.3z M79.8,361.3H95v22.3H79.8V361.3z M95.5,408.3H80.3V386h15.3V408.3z M97.8,310.8H113V333H97.8V310.8z M113.5,335.5v22.3H98.3
		v-22.3H113.5z M98,361.3h15.3v22.3H98V361.3z M113.8,408.3H98.5V386h15.3V408.3z"/>
	<linearGradient id="SVGID_22_" gradientUnits="userSpaceOnUse" x1="88.4947" y1="413" x2="88.4947" y2="306.9918">
		<stop  offset="0.4" style="stop-color:#FFFFFF;stop-opacity:0"/>
		<stop  offset="0.6196" style="stop-color:#FDFDFD;stop-opacity:0.366"/>
		<stop  offset="0.7004" style="stop-color:#F6F6F6;stop-opacity:0.5007"/>
		<stop  offset="0.7583" style="stop-color:#EAEAEA;stop-opacity:0.5972"/>
		<stop  offset="0.8053" style="stop-color:#D9D9D9;stop-opacity:0.6756"/>
		<stop  offset="0.8457" style="stop-color:#C3C3C3;stop-opacity:0.7428"/>
		<stop  offset="0.8815" style="stop-color:#A8A8A8;stop-opacity:0.8024"/>
		<stop  offset="0.9139" style="stop-color:#878787;stop-opacity:0.8565"/>
		<stop  offset="0.9437" style="stop-color:#616161;stop-opacity:0.9062"/>
		<stop  offset="0.9715" style="stop-color:#363636;stop-opacity:0.9525"/>
		<stop  offset="0.9962" style="stop-color:#080808;stop-opacity:0.9937"/>
		<stop  offset="1" style="stop-color:#000000"/>
	</linearGradient>
	<polygon class="st27" points="58.7,307 116.6,307 118.3,413 60.3,413 	"/>
	<rect x="323.3" y="286.8" class="st7" width="79.8" height="16"/>
	<rect x="326.3" y="415.5" class="st7" width="75" height="8.5"/>
	<linearGradient id="SVGID_23_" gradientUnits="userSpaceOnUse" x1="364.25" y1="416.25" x2="364.25" y2="302.5">
		<stop  offset="0.9538" style="stop-color:#303A37"/>
		<stop  offset="1" style="stop-color:#000000"/>
	</linearGradient>
	<path class="st28" d="M395.5,302.5h-64.8v113.8h67L395.5,302.5z M336.8,413l-2-105.3L392,307l1.5,106H336.8z"/>
	<path class="st7" d="M392,307l-57.3,0.8l2,105.3h57.5L392,307z M337.5,310.8h15.3V333h-15.3V310.8z M353.3,335.5v22.3H338v-22.3
		H353.3z M337.8,361.3H353v22.3h-15.3V361.3z M353.5,408.3h-15.3V386h15.3V408.3z M355.5,310.8h15.3V333h-15.3V310.8z M371.3,335.5
		v22.3H356v-22.3H371.3z M355.8,361.3H371v22.3h-15.3V361.3z M371.5,408.3h-15.3V386h15.3V408.3z M373.8,310.8H389V333h-15.3V310.8z
		 M389.5,335.5v22.3h-15.3v-22.3H389.5z M374,361.3h15.3v22.3H374V361.3z M389.8,408.3h-15.3V386h15.3V408.3z"/>
	<linearGradient id="SVGID_24_" gradientUnits="userSpaceOnUse" x1="364.4947" y1="413" x2="364.4947" y2="306.9918">
		<stop  offset="0.4" style="stop-color:#FFFFFF;stop-opacity:0"/>
		<stop  offset="0.6196" style="stop-color:#FDFDFD;stop-opacity:0.366"/>
		<stop  offset="0.7004" style="stop-color:#F6F6F6;stop-opacity:0.5007"/>
		<stop  offset="0.7583" style="stop-color:#EAEAEA;stop-opacity:0.5972"/>
		<stop  offset="0.8053" style="stop-color:#D9D9D9;stop-opacity:0.6756"/>
		<stop  offset="0.8457" style="stop-color:#C3C3C3;stop-opacity:0.7428"/>
		<stop  offset="0.8815" style="stop-color:#A8A8A8;stop-opacity:0.8024"/>
		<stop  offset="0.9139" style="stop-color:#878787;stop-opacity:0.8565"/>
		<stop  offset="0.9437" style="stop-color:#616161;stop-opacity:0.9062"/>
		<stop  offset="0.9715" style="stop-color:#363636;stop-opacity:0.9525"/>
		<stop  offset="0.9962" style="stop-color:#080808;stop-opacity:0.9937"/>
		<stop  offset="1" style="stop-color:#000000"/>
	</linearGradient>
	<polygon class="st29" points="334.7,307 392.6,307 394.3,413 336.3,413 	"/>
	<rect x="187.8" y="102.3" class="st7" width="79.8" height="16"/>
	<rect x="190.8" y="231" class="st7" width="75" height="8.5"/>
	<linearGradient id="SVGID_25_" gradientUnits="userSpaceOnUse" x1="228.75" y1="231.75" x2="228.75" y2="118">
		<stop  offset="0.9538" style="stop-color:#303A37"/>
		<stop  offset="1" style="stop-color:#000000"/>
	</linearGradient>
	<path class="st30" d="M260,118h-64.8v113.8h67L260,118z M201.3,228.5l-2-105.3l57.3-0.8l1.5,106H201.3z"/>
	<path class="st7" d="M256.5,122.5l-57.3,0.8l2,105.3h57.5L256.5,122.5z M202,126.3h15.3v22.3H202V126.3z M217.8,151v22.3h-15.3V151
		H217.8z M202.3,176.8h15.3V199h-15.3V176.8z M218,223.8h-15.3v-22.3H218V223.8z M220,126.3h15.3v22.3H220V126.3z M235.8,151v22.3
		h-15.3V151H235.8z M220.3,176.8h15.3V199h-15.3V176.8z M236,223.8h-15.3v-22.3H236V223.8z M238.3,126.3h15.3v22.3h-15.3V126.3z
		 M254,151v22.3h-15.3V151H254z M238.5,176.8h15.3V199h-15.3V176.8z M254.3,223.8H239v-22.3h15.3V223.8z"/>
	<linearGradient id="SVGID_26_" gradientUnits="userSpaceOnUse" x1="228.9947" y1="228.5" x2="228.9947" y2="122.4918">
		<stop  offset="0.4" style="stop-color:#FFFFFF;stop-opacity:0"/>
		<stop  offset="0.6196" style="stop-color:#FDFDFD;stop-opacity:0.366"/>
		<stop  offset="0.7004" style="stop-color:#F6F6F6;stop-opacity:0.5007"/>
		<stop  offset="0.7583" style="stop-color:#EAEAEA;stop-opacity:0.5972"/>
		<stop  offset="0.8053" style="stop-color:#D9D9D9;stop-opacity:0.6756"/>
		<stop  offset="0.8457" style="stop-color:#C3C3C3;stop-opacity:0.7428"/>
		<stop  offset="0.8815" style="stop-color:#A8A8A8;stop-opacity:0.8024"/>
		<stop  offset="0.9139" style="stop-color:#878787;stop-opacity:0.8565"/>
		<stop  offset="0.9437" style="stop-color:#616161;stop-opacity:0.9062"/>
		<stop  offset="0.9715" style="stop-color:#363636;stop-opacity:0.9525"/>
		<stop  offset="0.9962" style="stop-color:#080808;stop-opacity:0.9937"/>
		<stop  offset="1" style="stop-color:#000000"/>
	</linearGradient>
	<polygon class="st31" points="199.2,122.5 257.1,122.5 258.8,228.5 200.8,228.5 	"/>
	<rect x="47.3" y="102.3" class="st7" width="79.8" height="16"/>
	<rect x="50.3" y="231" class="st7" width="75" height="8.5"/>
	<linearGradient id="SVGID_27_" gradientUnits="userSpaceOnUse" x1="88.25" y1="231.75" x2="88.25" y2="118">
		<stop  offset="0.9538" style="stop-color:#303A37"/>
		<stop  offset="1" style="stop-color:#000000"/>
	</linearGradient>
	<path class="st32" d="M119.5,118H54.8v113.8h67L119.5,118z M60.8,228.5l-2-105.3l57.3-0.8l1.5,106H60.8z"/>
	<path class="st7" d="M116,122.5l-57.3,0.8l2,105.3h57.5L116,122.5z M61.5,126.3h15.3v22.3H61.5V126.3z M77.3,151v22.3H62V151H77.3z
		 M61.8,176.8H77V199H61.8V176.8z M77.5,223.8H62.3v-22.3h15.3V223.8z M79.5,126.3h15.3v22.3H79.5V126.3z M95.3,151v22.3H80V151
		H95.3z M79.8,176.8H95V199H79.8V176.8z M95.5,223.8H80.3v-22.3h15.3V223.8z M97.8,126.3H113v22.3H97.8V126.3z M113.5,151v22.3H98.3
		V151H113.5z M98,176.8h15.3V199H98V176.8z M113.8,223.8H98.5v-22.3h15.3V223.8z"/>
	<linearGradient id="SVGID_28_" gradientUnits="userSpaceOnUse" x1="88.4947" y1="228.5" x2="88.4947" y2="122.4918">
		<stop  offset="0.4" style="stop-color:#FFFFFF;stop-opacity:0"/>
		<stop  offset="0.6196" style="stop-color:#FDFDFD;stop-opacity:0.366"/>
		<stop  offset="0.7004" style="stop-color:#F6F6F6;stop-opacity:0.5007"/>
		<stop  offset="0.7583" style="stop-color:#EAEAEA;stop-opacity:0.5972"/>
		<stop  offset="0.8053" style="stop-color:#D9D9D9;stop-opacity:0.6756"/>
		<stop  offset="0.8457" style="stop-color:#C3C3C3;stop-opacity:0.7428"/>
		<stop  offset="0.8815" style="stop-color:#A8A8A8;stop-opacity:0.8024"/>
		<stop  offset="0.9139" style="stop-color:#878787;stop-opacity:0.8565"/>
		<stop  offset="0.9437" style="stop-color:#616161;stop-opacity:0.9062"/>
		<stop  offset="0.9715" style="stop-color:#363636;stop-opacity:0.9525"/>
		<stop  offset="0.9962" style="stop-color:#080808;stop-opacity:0.9937"/>
		<stop  offset="1" style="stop-color:#000000"/>
	</linearGradient>
	<polygon class="st33" points="58.7,122.5 116.6,122.5 118.3,228.5 60.3,228.5 	"/>
	<rect x="323.3" y="102.3" class="st7" width="79.8" height="16"/>
	<rect x="326.3" y="231" class="st7" width="75" height="8.5"/>
	<linearGradient id="SVGID_29_" gradientUnits="userSpaceOnUse" x1="364.25" y1="231.75" x2="364.25" y2="118">
		<stop  offset="0.9538" style="stop-color:#303A37"/>
		<stop  offset="1" style="stop-color:#000000"/>
	</linearGradient>
	<path class="st34" d="M395.5,118h-64.8v113.8h67L395.5,118z M336.8,228.5l-2-105.3l57.3-0.8l1.5,106H336.8z"/>
	<path class="st7" d="M392,122.5l-57.3,0.8l2,105.3h57.5L392,122.5z M337.5,126.3h15.3v22.3h-15.3V126.3z M353.3,151v22.3H338V151
		H353.3z M337.8,176.8H353V199h-15.3V176.8z M353.5,223.8h-15.3v-22.3h15.3V223.8z M355.5,126.3h15.3v22.3h-15.3V126.3z M371.3,151
		v22.3H356V151H371.3z M355.8,176.8H371V199h-15.3V176.8z M371.5,223.8h-15.3v-22.3h15.3V223.8z M373.8,126.3H389v22.3h-15.3V126.3z
		 M389.5,151v22.3h-15.3V151H389.5z M374,176.8h15.3V199H374V176.8z M389.8,223.8h-15.3v-22.3h15.3V223.8z"/>
	<linearGradient id="SVGID_30_" gradientUnits="userSpaceOnUse" x1="364.4947" y1="228.5" x2="364.4947" y2="122.4918">
		<stop  offset="0.4" style="stop-color:#FFFFFF;stop-opacity:0"/>
		<stop  offset="0.6196" style="stop-color:#FDFDFD;stop-opacity:0.366"/>
		<stop  offset="0.7004" style="stop-color:#F6F6F6;stop-opacity:0.5007"/>
		<stop  offset="0.7583" style="stop-color:#EAEAEA;stop-opacity:0.5972"/>
		<stop  offset="0.8053" style="stop-color:#D9D9D9;stop-opacity:0.6756"/>
		<stop  offset="0.8457" style="stop-color:#C3C3C3;stop-opacity:0.7428"/>
		<stop  offset="0.8815" style="stop-color:#A8A8A8;stop-opacity:0.8024"/>
		<stop  offset="0.9139" style="stop-color:#878787;stop-opacity:0.8565"/>
		<stop  offset="0.9437" style="stop-color:#616161;stop-opacity:0.9062"/>
		<stop  offset="0.9715" style="stop-color:#363636;stop-opacity:0.9525"/>
		<stop  offset="0.9962" style="stop-color:#080808;stop-opacity:0.9937"/>
		<stop  offset="1" style="stop-color:#000000"/>
	</linearGradient>
	<polygon class="st35" points="334.7,122.5 392.6,122.5 394.3,228.5 336.3,228.5 	"/>
	<rect x="331.6" y="507.3" class="st7" width="79.8" height="16"/>
	<rect x="334.6" y="636" class="st7" width="75" height="8.5"/>
	<linearGradient id="SVGID_31_" gradientUnits="userSpaceOnUse" x1="372.625" y1="636.75" x2="372.625" y2="523">
		<stop  offset="0.9538" style="stop-color:#303A37"/>
		<stop  offset="1" style="stop-color:#000000"/>
	</linearGradient>
	<path class="st36" d="M403.9,523h-64.8v113.8h67L403.9,523z M345.2,633.5l-2-105.3l57.3-0.8l1.5,106H345.2z"/>
	<path class="st7" d="M400.4,527.5l-57.3,0.8l2,105.3h57.5L400.4,527.5z M345.9,531.3h15.3v22.3h-15.3V531.3z M361.6,556v22.3h-15.3
		V556H361.6z M346.1,581.8h15.3V604h-15.3V581.8z M361.9,628.8h-15.3v-22.3h15.3V628.8z M363.9,531.3h15.3v22.3h-15.3V531.3z
		 M379.6,556v22.3h-15.3V556H379.6z M364.1,581.8h15.3V604h-15.3V581.8z M379.9,628.8h-15.3v-22.3h15.3V628.8z M382.1,531.3h15.3
		v22.3h-15.3V531.3z M397.9,556v22.3h-15.3V556H397.9z M382.4,581.8h15.3V604h-15.3V581.8z M398.1,628.8h-15.3v-22.3h15.3V628.8z"/>
	<linearGradient id="SVGID_32_" gradientUnits="userSpaceOnUse" x1="372.8697" y1="633.5" x2="372.8697" y2="527.4918">
		<stop  offset="0.4" style="stop-color:#FFFFFF;stop-opacity:0"/>
		<stop  offset="0.6196" style="stop-color:#FDFDFD;stop-opacity:0.366"/>
		<stop  offset="0.7004" style="stop-color:#F6F6F6;stop-opacity:0.5007"/>
		<stop  offset="0.7583" style="stop-color:#EAEAEA;stop-opacity:0.5972"/>
		<stop  offset="0.8053" style="stop-color:#D9D9D9;stop-opacity:0.6756"/>
		<stop  offset="0.8457" style="stop-color:#C3C3C3;stop-opacity:0.7428"/>
		<stop  offset="0.8815" style="stop-color:#A8A8A8;stop-opacity:0.8024"/>
		<stop  offset="0.9139" style="stop-color:#878787;stop-opacity:0.8565"/>
		<stop  offset="0.9437" style="stop-color:#616161;stop-opacity:0.9062"/>
		<stop  offset="0.9715" style="stop-color:#363636;stop-opacity:0.9525"/>
		<stop  offset="0.9962" style="stop-color:#080808;stop-opacity:0.9937"/>
		<stop  offset="1" style="stop-color:#000000"/>
	</linearGradient>
	<polygon class="st37" points="343.1,527.5 401,527.5 402.6,633.5 344.6,633.5 	"/>
	<rect x="188.3" y="509.6" class="st7" width="79.8" height="16"/>
	<rect x="191.3" y="638.4" class="st7" width="75" height="8.5"/>
	<linearGradient id="SVGID_33_" gradientUnits="userSpaceOnUse" x1="229.25" y1="639.125" x2="229.25" y2="525.375">
		<stop  offset="0.9538" style="stop-color:#303A37"/>
		<stop  offset="1" style="stop-color:#000000"/>
	</linearGradient>
	<path class="st38" d="M260.5,525.4h-64.8v113.8h67L260.5,525.4z M201.8,635.9l-2-105.3l57.3-0.8l1.5,106H201.8z"/>
	<path class="st7" d="M257,529.9l-57.3,0.8l2,105.3h57.5L257,529.9z M202.5,533.6h15.3v22.3h-15.3V533.6z M218.3,558.4v22.3H203
		v-22.3H218.3z M202.8,584.1H218v22.3h-15.3V584.1z M218.5,631.1h-15.3v-22.3h15.3V631.1z M220.5,533.6h15.3v22.3h-15.3V533.6z
		 M236.3,558.4v22.3H221v-22.3H236.3z M220.8,584.1H236v22.3h-15.3V584.1z M236.5,631.1h-15.3v-22.3h15.3V631.1z M238.8,533.6H254
		v22.3h-15.3V533.6z M254.5,558.4v22.3h-15.3v-22.3H254.5z M239,584.1h15.3v22.3H239V584.1z M254.8,631.1h-15.3v-22.3h15.3V631.1z"
		/>
	<linearGradient id="SVGID_34_" gradientUnits="userSpaceOnUse" x1="229.4947" y1="635.875" x2="229.4947" y2="529.8668">
		<stop  offset="0.4" style="stop-color:#FFFFFF;stop-opacity:0"/>
		<stop  offset="0.6196" style="stop-color:#FDFDFD;stop-opacity:0.366"/>
		<stop  offset="0.7004" style="stop-color:#F6F6F6;stop-opacity:0.5007"/>
		<stop  offset="0.7583" style="stop-color:#EAEAEA;stop-opacity:0.5972"/>
		<stop  offset="0.8053" style="stop-color:#D9D9D9;stop-opacity:0.6756"/>
		<stop  offset="0.8457" style="stop-color:#C3C3C3;stop-opacity:0.7428"/>
		<stop  offset="0.8815" style="stop-color:#A8A8A8;stop-opacity:0.8024"/>
		<stop  offset="0.9139" style="stop-color:#878787;stop-opacity:0.8565"/>
		<stop  offset="0.9437" style="stop-color:#616161;stop-opacity:0.9062"/>
		<stop  offset="0.9715" style="stop-color:#363636;stop-opacity:0.9525"/>
		<stop  offset="0.9962" style="stop-color:#080808;stop-opacity:0.9937"/>
		<stop  offset="1" style="stop-color:#000000"/>
	</linearGradient>
	<polygon class="st39" points="199.7,529.9 257.6,529.9 259.3,635.9 201.3,635.9 	"/>
</g>
<g id="Layer_4">
	<polygon class="st40" points="492.7,28.3 863.7,28.3 863.7,47.3 863.7,54.3 851.7,66.7 505.3,66.7 492.7,56.3 492.7,47.5 	"/>
	<polygon class="st40" points="40.2,28.3 411.2,28.3 411.2,47.3 411.2,54.3 399.2,66.7 52.8,66.7 40.2,56.3 40.2,47.5 	"/>
</g>
<g id="Powerline">
	<g>
		<path class="st41" d="M432.4,724.5l12.2-542.8c0.6-7.3,11.6-9.7,13.4,0s-3,542.8-3,542.8H432.4z"/>
		<polygon class="st41" points="414.2,225.7 481.5,248.7 481.5,252.6 414.2,232.5 		"/>
		<polygon class="st41" points="416.9,223 484.2,246 484.2,249.9 416.9,229.9 		"/>
	</g>
	<g>
		<path class="st41" d="M891.5,720.6l12.2-542.8c0.6-7.3,11.6-9.7,13.4,0c1.8,9.7-3,542.8-3,542.8H891.5z"/>
		<polygon class="st41" points="873.3,221.8 940.5,244.8 940.5,248.7 873.3,228.7 		"/>
		<polygon class="st41" points="876,219.1 943.3,242.1 943.3,246 876,226 		"/>
		<path class="st42" d="M940.5,260.7c0,0,12.1-11,0-19.5"/>
		<path class="st43" d="M937,257.2c0,0,11.1-6.7,3-15.2"/>
	</g>
	<path class="st44" d="M0,246c0,0,398.5,29.9,439.1-9.6c53.6,20.4,367.8,33.1,456.4-4.7C1009,266,1302,274.3,1364,248.7"/>
	<path class="st44" d="M26.1,255.5c0,0,398.5,29.9,439.1-9.6c53.6,20.4,367.8,33.1,456.4-4.7c113.6,34.3,406.6,42.6,468.6,16.9"/>
</g>
<g id="Layer_6">
</g>
</svg>
