<?xml version="1.0" encoding="utf-8"?>
<!-- Generator: Adobe Illustrator 22.0.1, SVG Export Plug-In . SVG Version: 6.00 Build 0)  -->
<svg version="1.1" xmlns="http://www.w3.org/2000/svg" xmlns:xlink="http://www.w3.org/1999/xlink" x="0px" y="0px"
	 viewBox="0 0 1270 290.3" style="enable-background:new 0 0 1270 290.3;" xml:space="preserve">
<style type="text/css">
	.st0{fill:#354B72;}
	.st1{fill:none;stroke:#000000;stroke-miterlimit:10;}
</style>
<g id="Layer_1">
	<path class="st0" d="M354,43.3c100-4,111.1-14.5,229-8c120,6.6,300.2,0.9,367,1c79.9,0.1,193,3.3,227,4c47,1,93-4,93-4v254H0v-248
		c0,0,169,9.6,229,2C291,36.4,354,43.3,354,43.3z"/>
</g>
<g id="Layer_2">
	<path class="st1" d="M105,134.3c33,3,64-35,109-25"/>
	<path class="st1" d="M410,172.3c52-2,109-65.5,166-51.3"/>
	<path class="st1" d="M776,240.3c66-6,157-50,174-59"/>
	<path class="st1" d="M1053,118.9c50,22.3,5,58.3,78,80.3"/>
	<path class="st1" d="M207,230.3c63,13,124-38,253-19.5"/>
</g>
</svg>
